<?xml version="1.0" encoding="utf-8"?>
<!-- Generator: Adobe Illustrator 25.0.1, SVG Export Plug-In . SVG Version: 6.00 Build 0)  -->
<svg version="1.1" id="Layer_1" xmlns="http://www.w3.org/2000/svg" xmlns:xlink="http://www.w3.org/1999/xlink" x="0px" y="0px"
	 viewBox="0 0 150 150" style="enable-background:new 0 0 150 150;" xml:space="preserve">
<style type="text/css">
	.st0{fill:#FFFFFF;}
</style>
<g>
	<g>
		<g>
			<g>
				<path class="st0" d="M75,0c41.4,0,75,33.6,75,75s-33.6,75-75,75S0,116.4,0,75S33.6,0,75,0z M68,88.5c0,4.1,3.4,7.5,7.5,7.5
					s7.5-3.4,7.5-7.5v-57c0-4.1-3.4-7.5-7.5-7.5S68,27.4,68,31.5V88.5z M65.5,116.5c0,5.5,4.5,10,10,10s10-4.5,10-10v-1
					c0-5.5-4.5-10-10-10s-10,4.5-10,10V116.5z"/>
			</g>
		</g>
	</g>
</g>
</svg>
