<svg xmlns="http://www.w3.org/2000/svg" viewBox="0 0 120.15 82.11"><defs><style>.cls-1{fill:#1b97c8;}</style></defs><g id="Layer_2" data-name="Layer 2"><g id="Layer_1-2" data-name="Layer 1"><path class="cls-1" d="M26.2,35.11H2.5A2.49,2.49,0,0,1,0,32.62V2.5A2.5,2.5,0,0,1,2.5,0h8.8Z"/><path class="cls-1" d="M117.65,35.11H108.8L93.9,0h23.75a2.5,2.5,0,0,1,2.5,2.5V32.62A2.49,2.49,0,0,1,117.65,35.11Z"/><polygon class="cls-1" points="59.24 35.11 44.34 0 27.82 0 42.72 35.11 59.24 35.11"/><polygon class="cls-1" points="92.28 35.11 77.38 0 60.86 0 75.76 35.11 92.28 35.11"/><path class="cls-1" d="M30.47,75.79H29.2v-35H17.89v35H16.62a3.16,3.16,0,0,0,0,6.32H30.47a3.16,3.16,0,1,0,0-6.32Z"/><path class="cls-1" d="M103.53,75.79h-1.27v-35H91v35H89.68a3.16,3.16,0,0,0,0,6.32h13.85a3.16,3.16,0,0,0,0-6.32Z"/></g></g></svg>