<?xml version="1.0" encoding="utf-8"?>
<!-- Generator: Adobe Illustrator 26.0.0, SVG Export Plug-In . SVG Version: 6.00 Build 0)  -->
<svg version="1.1" id="Layer_1" xmlns="http://www.w3.org/2000/svg" xmlns:xlink="http://www.w3.org/1999/xlink" x="0px" y="0px"
	 viewBox="0 0 20 20" style="enable-background:new 0 0 20 20;" xml:space="preserve">
<style type="text/css">
	.st0{fill:#FFFFFF;}
</style>
<g>
	<g>
		<g>
			<g>
				<path class="st0" d="M12.4,5.1c0,2.3-1.7,4.1-3.7,4.1C6.7,9.2,5,7.4,5,5.1C5,2.8,6.7,1,8.7,1C10.8,1,12.4,2.8,12.4,5.1z"/>
				<path class="st0" d="M2.7,13.4c0.3-0.2,2-2.3,7.3-2.8c3.6-0.3,5.2-3.3,6-4.4c0.7-1,1.1-1.6,1.9-1.2c0.8,0.5,0.9,2.7-1.4,5.2
					c-1.7,1.9-4.1,2.5-4.3,3.8c-0.2,1.4,0,4.1,0,5.5c0,0-5.3,1.7-9.5-3.2C1.3,14.7,2.4,13.6,2.7,13.4z"/>
			</g>
		</g>
	</g>
</g>
</svg>
