<svg width="12" height="11" viewBox="0 0 12 11" fill="none" xmlns="http://www.w3.org/2000/svg">
<path fill-rule="evenodd" clip-rule="evenodd" d="M10.6974 6.35586C11.0595 6.35586 11.3531 6.06231 11.3531 5.70019C11.3531 5.33808 11.0595 5.04453 10.6974 5.04453L6.76755 5.04453V1.10998C6.76755 0.747868 6.474 0.454316 6.11188 0.454316C5.74977 0.454316 5.45622 0.747868 5.45622 1.10998L5.45622 5.04453L1.51807 5.04453C1.15596 5.04453 0.862407 5.33808 0.862407 5.7002C0.862407 6.06231 1.15596 6.35586 1.51807 6.35586L5.45622 6.35586L5.45622 10.2893C5.45622 10.6514 5.74977 10.945 6.11188 10.945C6.474 10.945 6.76755 10.6514 6.76755 10.2893L6.76755 6.35586L10.6974 6.35586Z" fill="white"/>
</svg>
