<svg width="42" height="40" viewBox="0 0 42 40" fill="none" xmlns="http://www.w3.org/2000/svg">
<path fill-rule="evenodd" clip-rule="evenodd" d="M0 20C0 31.0449 9.40286 40 21 40C32.5971 40 42 31.0449 42 20C42 8.9551 32.5971 -3.8147e-06 21 -3.8147e-06C9.40286 -3.8147e-06 0 8.9551 0 20ZM20.9984 13.5994C19.8386 13.5994 18.8984 14.5396 18.8984 15.6994V32.5661C18.8984 33.7259 19.8386 34.6661 20.9984 34.6661C22.1582 34.6661 23.0984 33.7259 23.0984 32.5661V15.6994C23.0984 14.5396 22.1582 13.5994 20.9984 13.5994ZM20.9992 5.467C19.4528 5.467 18.1992 6.7206 18.1992 8.267C18.1992 9.8134 19.4528 11.067 20.9992 11.067C22.5456 11.067 23.7992 9.8134 23.7992 8.267C23.7992 6.7206 22.5456 5.467 20.9992 5.467Z" fill="white"/>
</svg>
