<svg width="40" height="40" viewBox="0 0 40 40" fill="none" xmlns="http://www.w3.org/2000/svg">
<path fill-rule="evenodd" clip-rule="evenodd" d="M0 20C0 8.95339 8.9551 0 20 0C31.0449 0 40 8.95339 40 20C40 31.0466 31.0449 40 20 40C8.9551 40 0 31.0466 0 20ZM31.8449 33.9272L32.5592 33.3017C33.351 32.6108 33.4245 31.417 32.7225 30.6361L27.698 25.5953C27.1102 24.937 26.1755 24.8144 25.4204 25.1905L22.7102 22.1652C24.3347 20.583 25.4041 18.4366 25.551 16.0123C25.8694 10.8038 21.8571 6.32298 16.5878 6.00818C11.3224 5.69338 6.79184 9.65903 6.47347 14.8675C6.1551 20.076 10.1673 24.5568 15.4327 24.8716C17.5592 24.9984 19.5592 24.4178 21.2163 23.3508L23.9878 26.4456C23.5184 27.1406 23.5306 28.0687 24.1184 28.7269L29.1878 34.381C29.8898 35.166 31.0531 34.6182 31.8449 33.9272ZM9.49248 14.988C9.70881 11.4451 12.7945 8.74307 16.3864 8.9594C19.9782 9.17573 22.7129 12.2206 22.4925 15.7635C22.2762 19.3063 19.1904 22.0084 15.5986 21.7921C12.0068 21.5798 9.27616 18.5308 9.49248 14.988Z" fill="#4B4B4B"/>
</svg>
