<svg width="32" height="34" viewBox="0 0 32 34" fill="none" xmlns="http://www.w3.org/2000/svg">
<rect y="2" width="32" height="32" rx="16" fill="white"/>
<path d="M10.672 16.768C10.016 16.768 9.504 17.28 9.504 17.92C9.504 18.576 10.016 19.088 10.672 19.088C11.312 19.088 11.824 18.576 11.824 17.92C11.824 17.28 11.312 16.768 10.672 16.768ZM16 16.768C15.344 16.768 14.832 17.28 14.832 17.92C14.832 18.576 15.344 19.088 16 19.088C16.64 19.088 17.152 18.576 17.152 17.92C17.152 17.28 16.64 16.768 16 16.768ZM21.328 16.768C20.672 16.768 20.16 17.28 20.16 17.92C20.16 18.576 20.672 19.088 21.328 19.088C21.968 19.088 22.48 18.576 22.48 17.92C22.48 17.28 21.968 16.768 21.328 16.768Z" fill="black"/>
</svg>
